# xmcd
# Copyright (C) 1995-1998 Ti Kan
#
# Track frame offsets:
#       150
#       18468
#       34485
#       48093
#       70602
#       83630
#       98729
#       115202
#       118867
#       131797
#       143475
#
# Disc length: 2198 seconds
#
# Revision: 0
# Processed by: cddbd v1.5.2PL0 Copyright (c) Steve Scherf et al.
# Submitted via: CD-Transfer v1.0
#
DISCID=8f08940b
DTITLE=Raphelson - Hold This Moment Still
DYEAR=06
DGENRE=
TTITLE0=Here Starts The End
TTITLE1=White Flag
TTITLE2=Serene
TTITLE3=Celebrate
TTITLE4=Temple Street
TTITLE5=A New Heart
TTITLE6=Red Sycamore
TTITLE7=Crèvecoeur
TTITLE8=Snowdrops
TTITLE9=My Belle
TTITLE10=Starbox
EXTD=
EXTT0=
EXTT1=
EXTT2=
EXTT3=
EXTT4=
EXTT5=
EXTT6=
EXTT7=
EXTT8=
EXTT9=
EXTT10=
PLAYORDER=
